HIERARCHY
ROOT Hips
{
	OFFSET 0.000000 0.000000 0.000000
	CHANNELS 6 Xposition Yposition Zposition Yrotation Xrotation Zrotation
	JOINT Chest
	{
		OFFSET 0.000000 -0.009281 11.569106
		CHANNELS 3 Yrotation Xrotation Zrotation
		JOINT Chest2
		{
			OFFSET -0.000000 0.016865 9.269641
			CHANNELS 3 Yrotation Xrotation Zrotation
			JOINT Chest3
			{
				OFFSET -0.000000 0.000001 8.374491
				CHANNELS 3 Yrotation Xrotation Zrotation
				JOINT Chest4
				{
					OFFSET -0.000000 0.000001 8.374493
					CHANNELS 3 Yrotation Xrotation Zrotation
					JOINT Neck
					{
						OFFSET -0.000000 0.000002 12.152554
						CHANNELS 3 Yrotation Xrotation Zrotation
						JOINT Head
						{
							OFFSET -0.000000 0.040101 7.802319
							CHANNELS 3 Yrotation Xrotation Zrotation
							End Site
							{
								OFFSET -0.000000 0.020947 14.853096
							}
						}
					}
					JOINT RightCollar
					{
						OFFSET 2.894404 0.000001 6.791374
						CHANNELS 3 Yrotation Xrotation Zrotation
						JOINT RightShoulder
						{
							OFFSET 13.574684 0.000001 0.000000
							CHANNELS 3 Yrotation Xrotation Zrotation
							JOINT RightElbow
							{
								OFFSET 23.923903 0.000002 0.000000
								CHANNELS 3 Yrotation Xrotation Zrotation
								JOINT RightWrist
								{
									OFFSET 19.846718 0.012767 0.000000
									CHANNELS 3 Yrotation Xrotation Zrotation
									End Site
									{
										OFFSET 14.973145 0.000001 0.000000
									}
								}
							}
						}
					}
					JOINT LeftCollar
					{
						OFFSET -2.894404 0.000001 6.791374
						CHANNELS 3 Yrotation Xrotation Zrotation
						JOINT LeftShoulder
						{
							OFFSET -13.574684 -0.000001 0.000000
							CHANNELS 3 Yrotation Xrotation Zrotation
							JOINT LeftElbow
							{
								OFFSET -23.923903 -0.000002 0.000000
								CHANNELS 3 Yrotation Xrotation Zrotation
								JOINT LeftWrist
								{
									OFFSET -19.846718 0.012763 0.000000
									CHANNELS 3 Yrotation Xrotation Zrotation
									End Site
									{
										OFFSET -14.973145 -0.000001 0.000000
									}
								}
							}
						}
					}
				}
			}
		}
	}
	JOINT RightHip
	{
		OFFSET 9.469263 0.004643 0.045487
		CHANNELS 3 Yrotation Xrotation Zrotation
		JOINT RightKnee
		{
			OFFSET 0.000000 0.002661 -40.478676
			CHANNELS 3 Yrotation Xrotation Zrotation
			JOINT RightAnkle
			{
				OFFSET 0.000000 0.049106 -35.224068
				CHANNELS 3 Yrotation Xrotation Zrotation
				JOINT RightToe
				{
					OFFSET -0.000001 12.539529 -6.151390
					CHANNELS 3 Yrotation Xrotation Zrotation
					End Site
					{
						OFFSET -0.000001 5.044994 -1.291870
					}
				}
			}
		}
	}
	JOINT LeftHip
	{
		OFFSET -9.469263 0.004641 0.045487
		CHANNELS 3 Yrotation Xrotation Zrotation
		JOINT LeftKnee
		{
			OFFSET 0.000000 0.002661 -40.478676
			CHANNELS 3 Yrotation Xrotation Zrotation
			JOINT LeftAnkle
			{
				OFFSET 0.000000 0.049106 -35.224068
				CHANNELS 3 Yrotation Xrotation Zrotation
				JOINT LeftToe
				{
					OFFSET -0.000001 12.539529 -6.151390
					CHANNELS 3 Yrotation Xrotation Zrotation
					End Site
					{
						OFFSET -0.000001 5.044994 -1.291870
					}
				}
			}
		}
	}
}
MOTION
Frames: 16
Frame Time: 0.016667
31.504477 10.382571 79.808640 -5.785475 8.390586 -54.828159 -0.483770 -2.013490 0.383368 0.138191 -0.703719 -0.180697 0.138190 -0.703720 -0.180694 0.103434 -0.527831 -0.135365 2.556127 -15.755739 -11.385459 0.639762 6.536783 -20.278050 10.166404 -2.388922 -0.629601 76.757563 -1.428985 25.564788 7.521340 -16.006453 40.099037 -32.528267 19.572897 40.961898 -6.261845 -0.591457 8.054495 -73.010740 22.838754 18.535511 17.636885 19.786474 18.247964 8.438828 -7.285413 0.987451 -14.070492 -7.359435 -7.375651 0.396604 -52.607097 3.200688 20.594100 -20.994028 10.090328 -34.049193 59.014392 -19.816776 -16.201851 3.567122 2.605392 -3.802180 -4.882689 6.978480 11.251434 -9.659437 4.317074 -1.063256 1.757220 -1.113904 
32.830086 12.091856 79.646225 -5.084798 9.194974 -53.698199 -0.575391 -2.118386 -0.212728 -0.020953 -0.617131 -0.206319 -0.020952 -0.617132 -0.206315 -0.015922 -0.462841 -0.154761 2.278522 -15.602087 -11.423975 0.090498 6.774421 -20.464691 10.126339 -1.660132 -0.667207 77.098636 -0.569375 23.688259 10.737605 -16.625065 40.243580 -33.306058 22.442492 43.321404 -6.642606 -0.066187 8.029597 -71.581591 23.354334 17.993758 16.911622 19.765512 17.444496 7.590038 -6.108829 0.447147 -14.430327 -3.612020 -7.220865 -2.669729 -58.409954 7.744778 22.837999 -22.753862 8.979870 -35.462014 54.238925 -21.082965 -17.347306 1.966712 0.511326 -4.862988 -5.023714 7.418817 11.662947 -7.632226 5.417520 -0.756297 0.858743 -1.102363 
34.063580 13.691033 79.564529 -4.308615 9.728851 -52.488354 -0.652607 -2.013620 -0.836331 -0.169121 -0.583847 -0.236113 -0.169121 -0.583847 -0.236117 -0.127064 -0.437820 -0.177245 2.097566 -15.398190 -11.467379 -0.290067 7.117652 -20.631181 9.844354 -1.749691 -0.797475 77.663042 0.537657 22.399310 13.518659 -17.663129 40.019168 -34.211574 25.358846 44.767317 -7.309585 0.489333 7.730336 -70.157722 23.733065 17.143642 15.942794 19.873974 16.435484 7.635095 -4.264155 -0.711269 -14.099279 0.276093 -6.416182 -6.228862 -63.286668 13.046016 24.905595 -22.053685 6.588297 -18.568631 35.933485 -8.275785 -18.285892 0.539573 -1.621938 -5.731628 -4.767589 8.311105 12.002158 -6.226367 5.711463 -0.458037 0.401091 -0.919489 
35.164772 15.240602 79.520905 -3.565991 9.984685 -51.528385 -0.756972 -1.820006 -1.095847 -0.292271 -0.580381 -0.267292 -0.292272 -0.580381 -0.267299 -0.219455 -0.435158 -0.200744 2.047950 -15.166298 -11.545463 -0.444815 7.528429 -20.818092 9.725187 -1.827881 -0.690432 78.125609 1.927324 20.881521 15.821349 -18.692505 39.279407 -35.022690 28.128739 45.727754 -7.723175 0.566378 7.479715 -69.583625 23.929242 15.430241 14.861079 19.845613 15.242127 8.324916 -2.171619 -2.724791 -13.393871 4.533825 -4.966000 -8.819634 -67.385410 16.981490 25.643020 -20.153204 4.063943 -9.019079 19.692967 -2.940444 -19.252212 -0.527602 -3.341123 -6.109390 -4.795658 9.703479 12.434555 -4.800302 5.542275 -0.402911 0.215339 -0.954705 
36.223171 16.772697 79.466278 -3.071182 9.978803 -50.652673 -0.747007 -1.700093 -1.136542 -0.392472 -0.575431 -0.314601 -0.392473 -0.575431 -0.314596 -0.294648 -0.431372 -0.236315 2.120369 -14.947659 -11.673148 -0.389632 7.928187 -21.051808 9.794402 -1.430925 -0.659209 78.339025 2.861484 18.738493 17.753627 -18.997212 38.018462 -35.393429 30.395189 46.961888 -7.930563 0.028320 7.123375 -69.852830 24.220489 12.877400 13.723672 19.661678 13.841479 9.458974 -0.239706 -5.623387 -12.332125 8.907507 -3.150722 -9.685566 -70.315145 18.425936 25.013771 -18.462240 2.097848 -3.332609 9.075669 -0.659109 -20.143240 -1.625167 -4.077277 -5.907847 -4.881857 10.291452 12.852970 -3.342191 5.409952 -0.515580 -0.001882 -1.139079 
37.186039 18.193167 79.404724 -2.463535 9.780681 -49.386386 -0.813753 -1.385520 -1.322755 -0.470784 -0.551251 -0.392370 -0.470785 -0.551252 -0.392365 -0.353440 -0.413137 -0.294699 2.288972 -14.787202 -11.864940 -0.170330 8.228854 -21.363660 9.893283 -1.283463 -0.677945 78.346013 3.481993 16.561247 19.333863 -18.488161 36.394933 -35.511024 32.117288 48.551959 -8.231840 -0.433383 6.504592 -70.172640 24.449026 10.357177 12.414676 19.441642 12.230719 10.904096 1.393108 -9.162403 -11.370672 13.453082 -1.272593 -8.372053 -72.037841 16.628249 23.299712 -16.854091 1.176609 0.178474 2.936453 0.370952 -20.835432 -2.626613 -4.086785 -5.553814 -4.909505 9.409678 13.043610 -2.175119 5.293056 -0.518912 -0.161039 -1.031759 
38.081699 19.505581 79.354553 -1.770947 9.634973 -47.862216 -1.100403 -1.054575 -1.522820 -0.522192 -0.514267 -0.491121 -0.522190 -0.514267 -0.491115 -0.392054 -0.385281 -0.368778 2.529213 -14.678138 -12.130436 0.163240 8.438252 -21.781022 9.963920 -1.186960 -0.714150 78.217373 4.045329 14.167600 20.428049 -17.655069 34.489300 -35.724601 33.612993 49.921422 -8.696433 -0.732176 5.562743 -70.307946 24.592847 7.995976 10.879373 19.326924 10.408718 12.453348 2.639921 -12.844563 -10.645085 17.795983 0.941717 -5.360800 -72.606373 12.010519 20.831618 -14.927722 1.069153 -2.915792 7.234687 -1.137795 -21.523615 -3.453519 -3.923845 -5.119740 -5.247569 8.347504 12.931131 -1.069579 4.831604 -0.356533 -0.128536 -0.660819 
38.967628 20.657524 79.324982 -1.188070 9.436789 -46.083006 -1.397012 -0.768770 -1.805412 -0.538692 -0.458812 -0.604450 -0.538693 -0.458812 -0.604455 -0.404471 -0.343577 -0.453741 2.809786 -14.631677 -12.454924 0.560147 8.532697 -22.286945 10.005252 -1.117729 -0.658510 78.037473 4.850277 11.576065 20.910377 -16.841628 32.196118 -35.885862 35.077287 50.735895 -9.207020 -1.196010 4.538924 -70.547904 24.617048 5.522177 9.096540 19.261273 8.247288 13.907495 3.575767 -16.156389 -9.910961 21.686940 3.124418 -2.002542 -71.931072 6.089772 17.820206 -13.177563 1.356612 -3.775146 11.722242 -1.097882 -21.932962 -4.271952 -4.049918 -4.727699 -5.709570 7.909901 12.665309 0.168230 3.857471 -0.137636 -0.084492 -0.206313 
39.897839 21.624149 79.315247 -0.878597 9.059448 -44.288138 -1.512232 -0.536729 -1.999730 -0.523372 -0.397443 -0.725871 -0.523374 -0.397443 -0.725870 -0.393000 -0.297461 -0.544742 3.133711 -14.633400 -12.825881 1.028490 8.540985 -22.858292 10.082736 -1.076215 -0.464708 77.761205 5.863206 8.982812 20.714919 -15.966988 29.353100 -35.600186 36.386877 51.054196 -9.498853 -1.942965 3.875943 -71.298255 24.278777 2.664357 7.181685 19.140620 5.738493 14.879176 4.230272 -18.687691 -8.921242 25.177735 5.359715 0.250869 -69.973055 0.543665 15.059928 -12.218912 2.022347 -3.050152 15.534861 -0.510144 -21.948376 -5.084146 -4.520997 -4.328585 -6.200737 8.116931 12.430499 1.580565 2.908624 -0.050849 -0.153329 0.069969 
40.906624 22.467445 79.333702 -0.965873 8.655293 -42.334814 -1.443766 -0.478533 -2.269775 -0.496290 -0.344703 -0.838300 -0.496290 -0.344704 -0.838304 -0.372690 -0.257848 -0.629004 3.532809 -14.678637 -13.261118 1.620449 8.475454 -23.516874 10.151408 -0.854557 -0.397257 77.310242 6.479985 6.326344 20.166905 -14.480134 25.884078 -34.368402 37.200735 51.389179 -9.628483 -2.689885 3.443124 -72.244017 23.635392 -0.232372 5.134071 18.902357 2.868470 15.152599 4.575407 -20.152487 -7.789371 27.599587 7.319512 0.880406 -66.279760 -3.369066 12.851050 -11.659025 2.689632 -1.526339 17.501164 0.018299 -21.652419 -6.213627 -5.345734 -3.792149 -6.593496 8.395015 12.291912 2.982087 2.366118 -0.167320 -0.309371 0.135986 
41.998470 23.275862 79.390381 -1.328088 8.390837 -40.402662 -1.367296 -0.573134 -2.390376 -0.478330 -0.313099 -0.924721 -0.478331 -0.313101 -0.924722 -0.359222 -0.234102 -0.693788 4.045962 -14.767540 -13.790507 2.397695 8.339775 -24.304004 10.184430 -0.588941 -0.512252 76.785007 6.429676 3.714984 19.190296 -12.365997 21.967944 -33.180434 37.524755 51.225223 -9.761683 -3.322240 2.835203 -73.056755 22.980513 -2.939298 3.045086 18.599763 -0.272695 14.575610 4.372950 -20.452692 -6.617393 29.006663 8.947801 0.567368 -61.167097 -5.608658 10.733463 -11.451092 2.765970 0.431067 17.397942 0.557885 -21.195761 -7.662595 -6.051238 -3.159429 -6.878030 8.281126 12.240506 4.191559 2.257799 -0.411351 -0.383809 0.084327 
43.188961 24.108641 79.483727 -1.861300 8.282857 -38.427969 -1.329588 -0.806668 -2.402171 -0.474431 -0.293312 -0.976199 -0.474432 -0.293313 -0.976197 -0.356292 -0.219227 -0.732379 4.684978 -14.907200 -14.420570 3.381092 8.123534 -25.227025 10.236527 -0.514278 -0.655472 76.300132 6.074459 1.327474 17.914876 -9.869996 17.589158 -31.958151 37.717093 50.815764 -9.933873 -3.953088 2.034418 -73.699736 22.356408 -5.574154 0.917777 18.164845 -3.552200 13.187932 3.558523 -19.706545 -5.484491 29.389665 10.182678 -0.003249 -54.813603 -6.329260 8.755905 -11.448550 2.099620 2.228773 15.031358 0.968277 -20.545404 -9.417284 -6.321027 -2.541044 -7.076609 7.725776 12.228687 5.354720 2.136662 -0.672330 -0.407066 -0.004437 
44.455547 24.968750 79.601242 -2.236480 8.276617 -36.055192 -1.501609 -0.974575 -2.656369 -0.471431 -0.265480 -1.009412 -0.471431 -0.265481 -1.009408 -0.354012 -0.198333 -0.757263 5.403860 -15.105530 -15.112456 4.500649 7.810006 -26.230542 10.229370 -0.646155 -0.757947 75.938289 5.693596 -0.886220 16.088975 -7.607256 13.016083 -30.508082 37.535933 49.625716 -10.094643 -4.314112 1.406743 -74.207608 21.359108 -7.860475 -1.107303 17.501238 -6.841588 11.136746 2.311279 -18.243724 -4.837315 29.024288 11.032546 -0.279033 -47.603816 -5.625512 7.577388 -11.643957 0.267984 3.302831 10.291201 1.127121 -19.789823 -11.276063 -6.416639 -1.940141 -7.132688 6.980417 12.087770 6.304534 1.531712 -0.851403 -0.252323 0.019995 
45.811161 25.826189 79.728783 -2.607669 8.231876 -33.621760 -1.671431 -1.093185 -2.866976 -0.458238 -0.248336 -1.045624 -0.458237 -0.248338 -1.045624 -0.344103 -0.185469 -0.784403 6.180882 -15.315787 -15.825705 5.722491 7.486433 -27.252112 10.226279 -0.534643 -0.736325 75.540683 5.263539 -3.361187 13.468471 -5.966350 8.796062 -28.149320 35.944936 47.014938 -10.164849 -4.296604 1.049183 -74.715426 19.873716 -9.707419 -2.883017 16.571256 -10.073302 8.640287 0.955190 -16.414743 -4.387162 27.972232 12.184176 0.010117 -39.904059 -4.087981 7.465877 -11.912764 -2.081934 3.404734 2.990468 0.895544 -18.799746 -13.060394 -6.347045 -1.366920 -7.230901 6.335870 11.859480 7.281759 0.677857 -1.014562 -0.031731 0.035877 
47.233772 26.583796 79.849174 -3.052783 7.652818 -31.536203 -1.520030 -0.764553 -2.648177 -0.426059 -0.249240 -1.100179 -0.426060 -0.249239 -1.100174 -0.319994 -0.186164 -0.825305 6.999780 -15.508049 -16.543738 7.016912 7.206994 -28.269627 10.228102 -0.196541 -0.661835 75.479819 4.929090 -6.084677 9.780496 -5.100144 5.267412 -23.975176 32.219502 43.227779 -10.219559 -4.100661 0.712664 -75.227888 18.062128 -11.169720 -4.356497 15.576351 -13.193743 6.062380 -0.139179 -14.625593 -3.753385 26.573112 14.074610 0.426584 -31.569274 -2.292960 8.544044 -12.050442 -4.000706 2.110066 -1.642431 0.260220 -17.326778 -14.109260 -6.187907 -0.908242 -7.696792 5.977575 11.685272 8.576323 -0.094385 -1.261183 0.065077 -0.023762 
48.699047 27.440332 79.998512 -3.640950 7.537579 -28.990103 -1.516753 -0.886161 -2.826079 -0.368095 -0.289531 -1.187649 -0.368095 -0.289530 -1.187644 -0.276635 -0.216432 -0.890907 7.834884 -15.627944 -17.225187 8.341096 7.070571 -29.219419 10.231924 0.064108 -0.587575 75.589628 5.321381 -8.533342 5.758176 -5.390160 2.148855 -18.491889 26.965109 38.719738 -10.326186 -3.734708 0.201411 -75.661181 16.161431 -12.259923 -5.629170 14.597678 -16.159384 4.038288 -0.561138 -13.198072 -3.715992 24.650059 15.261322 0.658963 -24.511206 -0.678946 10.277679 -11.716384 -5.181216 1.122743 -4.184211 0.120346 -15.841649 -15.484930 -6.596300 -0.491206 -8.425861 5.910984 11.568628 9.585638 -0.722407 -1.538889 0.446349 -0.083533 
